<?xml version="1.0" encoding="UTF-8"?>
<svg id="_组_3" data-name="组 3" xmlns="http://www.w3.org/2000/svg" viewBox="0 0 3531.97 639.88">
  <defs>
    <style>
      .cls-1 {
        fill: #fff;
      }
    </style>
  </defs>
  <g>
    <rect class="cls-1" x="776.18" y="191.19" width="75.11" height="75.12"/>
    <rect class="cls-1" x="776.18" y="298" width="75.11" height="254.47"/>
    <path class="cls-1" d="M1364.89,277.57c-78.86,0-142.4,58.05-142.4,140.53,0,73.7,60.63,138.75,142.4,138.75s112.04-45.96,125.09-84.34l-32.28-10.62c-19.85,30.54-45.87,43.9-83.14,41.84-41.27-2.3-78.07-27.82-78.93-75.33h201.5c9.34-91.79-59.47-150.83-132.25-150.83M1297.6,385.78c2.54-30.02,25.26-56.85,65.31-56.85s62.76,24.27,65.31,56.85h-130.62Z"/>
    <path class="cls-1" d="M1105.21,293.96s-25.8-16.37-67.43-16.37c-92.85,0-143.35,61.41-143.35,140.25s49.42,139.01,127.15,139.01c35.12,0,68.68-14.17,83.63-35.68v31.08h74.84V191.18h-74.84v102.77ZM1105.21,417.21v59.68c-6.98,9.95-28.8,23.22-62.19,23.22-51.17,0-74.24-40.4-74.24-82.9s23.08-82.89,74.24-82.89c33.39,0,55.21,13.26,62.19,23.22v59.67Z"/>
    <path class="cls-1" d="M1662.87,277.57c-67.36,0-106.61,34.03-123.19,77.1l32.32,10.56c2.45-4.45,23.61-47.33,79.03-45.62,18.28.56,39.35,6.48,51.35,25.81,5.99,9.65,8.72,23.65,8.72,41-11.57-5.38-34.26-10.82-55.39-10.82-84.24,0-120.25,45.59-120.25,98.56,0,56.83,60.86,86.95,112.26,82.62,28.86-2.43,48.52-11.72,63.38-26.19v21.67h69.61v-174.56c0-47.19-37.19-100.12-117.84-100.12M1711.1,495.81s-15.34,16.07-49.69,16.07c-41.83,0-56.43-27.96-56.45-46.04.02-18.09,14.62-44.63,56.45-44.63,33.26,0,49.69,11.84,49.69,11.84v62.76Z"/>
    <path class="cls-1" d="M27.75,373.18C27.75,200.56,167.69,60.63,340.3,60.63c107.13,0,201.62,53.91,257.94,136.06C555.01,81.78,444.12,0,314.11,0,146.48,0,10.6,135.89,10.6,303.51c0,37.67,6.92,73.71,19.45,107-1.45-12.25-2.29-24.7-2.29-37.33"/>
    <path class="cls-1" d="M600.8,205.62l3.16,20.91c2.37,15.53,2.6,31.39,2.6,47.58,0,72.41-24.5,139.06-65.59,192.25l-45.64-260.74h-75.13c-1.62,30.64-12.68,140.05-62.15,229.95-48.71,88.52-116.14,112.34-154.98,122.57,44.87,7.21,206.49-18.56,240.86-194.83l25.95,170.38c-50.68,34.86-112.04,55.29-178.2,55.29-131.92,0-244.83-81.16-291.69-196.24,32.09,141.48,158.53,247.14,309.73,247.14,161.5,0,294.76-120.56,314.94-276.57l28.64,189.15h83.29l-60.7-346.84h-75.11Z"/>
  </g>
  <g>
    <path class="cls-1" d="M3459.86,189.4C3267.6,24.23,2839.32-2.89,2596.71,16.43c-164.95,13.14-493.04,76.57-590.02,223.23-97.89,148.04,93.72,257.39,208.16,301.87,310.52,120.69,841.65,120.62,1142.63-27.69,136.81-67.41,255.95-192.51,102.38-324.44ZM3444.22,435.04c-96.99,80.37-281.29,125.31-404.73,143.99-263.68,39.91-732.81,28.16-956.98-131.78-191.57-136.68-13.38-266.45,130.48-321.89,296.09-114.1,795.77-113.3,1091.37,1.86,132.31,51.55,305.81,170.31,139.86,307.82Z"/>
    <path class="cls-1" d="M3126.35,285.69c-24.41-17.91-65.11,42.18-64.36,64.31,25.82,1.37,53.65-4.77,64.83-30.3,4.29-9.8,10.2-26.18-.47-34.01Z"/>
    <path class="cls-1" d="M2537.37,288.07c-28.58,4.34-73.72,65.89-72.5,94.48.5,11.69,8.65,24.55,21.73,21.73,27.41-5.9,66.43-75.47,67.23-102.47.43-14.58-2.21-15.91-16.47-13.75Z"/>
    <path class="cls-1" d="M3284.95,141.42c-294.3-103.54-769.73-102.82-1063.01,3.32-105.41,38.15-290.53,138.28-157.41,264.32,124.32,117.71,448.94,159.42,615.46,165.22,205.14,7.14,608.93-21.94,766.55-164.24,141.24-127.51-53.5-230.59-161.59-268.61ZM2425.94,227.55c-79.97-28.18-155.75,61.16-148.54,136.77,4.72,49.56,46.96,58.79,87.77,40.9,7.91-3.47,34.7-25.13,39.93-21.3-4.39,17.15-25.79,28.95-41.16,35.7-87.75,38.54-156.22-15.14-124.34-108.68,24.09-70.67,115.96-112.68,187.36-103.99,20.22,2.46,51.63,17.28,36.64,41.29-15.08,24.15-55.92,6.87-37.66-20.69ZM2592.75,381.29c-.28,18.12-16.26,34.6-31.54,42.72-27.44,14.59-42.84,14.41-41.45-21.87-41.98,48.57-107.49,41.44-86.72-35.92,12.68-47.23,61.08-100.05,113.96-91.63,5.31.85,14.99,7.53,15.86,7.45,2.43-.23,3.87-8.34,8.18-9.81,4.2-1.43,23.34-1.51,25.84,2.02,6.87,9.66-25.49,79.76-30.29,95.19-1.24,3.97-7.58,27.39-7.38,28.87,2.43,17.7,31.19-20.15,33.54-17.02ZM2740.13,310.86c-3.54-4.13-2.53-15.12-7.86-12.95-11.6,4.72-37.26,52.85-43.5,65.99-4.9,10.32-20.2,54.95-24.4,59.01-8.22,7.94-22.56,4.9-32.38,2.57l39.07-121.03c0-3.99.57-4.61-4-3.99-11.48,1.56-22.27,19.1-31.32,26.08-4.8,1.98-4.48-3.11-3.76-6.37,2.79-12.67,28.09-37.95,40.55-42.86,31.09-12.25,31.5,6.71,29.45,31.58-.1,1.2-1.15,7.2-2.31,12.44,1.52-2.86,2.92-4.62,5.19-7.81,10.88-15.3,44.82-60.35,63.74-31.16,15.13,23.35-13.93,45.46-28.47,28.49ZM2892.62,312.15c-5.1-4.44-3.75-16.45-9.16-14.24-10.71,4.37-38.01,55.26-44.06,68.03-4.92,10.38-17.9,50.84-22.3,55.9-8.31,9.55-23.51,4.91-34.05,3.75-4.66-4.63,43.32-107.6,39.1-125.07-6.28-6.49-28.07,26.12-35.19,25.99-4.69-.09-3.22-6.12-1.85-9.6,5.44-13.78,33.43-41.54,48.82-42.62,25.21-1.77,22.7,20.55,19.51,39.25-.2,1.15-1.23,5.04-2.58,7.82,2.21-1.43,3.73-3.3,5.19-5.21,8.83-11.57,25.91-39.31,40.57-41.57,47.49-7.31,24.56,62.46-4,37.59ZM2952.51,407.34c17.98,5.01,23.94-21.54,35.15-23.49,4.54-.79,4.03.2,4.04,4,.11,36.04-71.36,55.41-77.74,28.06-3.36-14.41,10.67-50.51,16.43-65.85,8.94-23.81,23.4-47.77,30.21-72.73l33.59-.29s-28.56,78.59-36.51,105.3c-1.55,5.2-5.27,21.06-5.27,21.06l.1,3.93ZM2974.92,255.9c-13.45-8.66-3.24-34.87,8.09-38.26,43.53-13,21.88,57.54-8.09,38.26ZM3154.96,333.51c-20.25,20.19-70.19,30.43-98.2,32.13-5.36,35.58,13.82,56.91,49.51,42.98,7.7-3,33.53-27.51,39.12-22.11,6.86,6.63-29.98,33.47-35.6,36.05-66.31,30.46-116.59-18.46-88.19-85.57,16.61-39.24,61.89-65.93,104.23-65.39,37.75.48,57.94,33.18,29.14,61.9ZM3290.14,308.17c-3.03-6.44,1.41-16.05-10.67-7.85-16.88,11.46-49.51,88.41-59,110.42-1.63,3.78-3.8,9.88-5.53,12.21-5.09,6.86-22.86,3.89-30.44,2.63l38.88-120.97c-9.71-16.02-30.69,27.28-38.86,19.33-11.88-11.56,86.81-105.15,67.79-5.2,10.3-16.52,49.01-67.1,68.92-36.37,17.43,26.9-21.56,46-31.08,25.8Z"/>
  </g>
</svg>